<svg xmlns="http://www.w3.org/2000/svg" version="1.0" preserveAspectRatio="xMidYMid meet"
    viewBox="210.1 433 659.8 178">
    <g transform="translate(0.000000,1080.000000) scale(0.100000,-0.100000)" fill="#08388b"
        stroke="none">
        <path
            d="M7045 6279 c-60 -105 -146 -247 -191 -316 l-81 -125 -82 131 -83 131 -154 0 c-85 0 -154 -4 -154 -8 0 -4 70 -110 155 -236 l154 -228 -63 -92 c-203 -293 -266 -386 -266 -391 0 -3 68 -4 152 -3 l152 3 80 117 c45 65 84 118 87 118 3 0 95 -155 205 -345 l199 -345 515 0 515 0 257 445 257 445 -257 445 -257 445 -515 0 -515 0 -110 -191z m1073 -439 l151 -260 -151 -260 -150 -260 -298 0 -298 0 -150 260 -151 260 151 260 150 260 298 0 298 0 150 -260z"></path>
        <path
            d="M2632 6363 c-6 -10 -117 -265 -247 -568 -131 -302 -248 -574 -261 -602 l-23 -53 148 0 148 0 57 135 58 135 262 0 261 0 57 -133 57 -132 145 -3 c80 -1 146 0 146 2 0 3 -119 281 -265 618 l-264 613 -135 3 c-121 2 -136 1 -144 -15z m222 -533 l75 -175 -151 -3 c-83 -1 -153 -1 -155 2 -2 2 26 73 62 157 37 85 71 165 76 178 5 13 11 22 14 20 2 -3 38 -83 79 -179z"></path>
        <path
            d="M3990 6101 c-44 -14 -90 -41 -131 -78 l-39 -35 0 56 0 56 -130 0 -130 0 0 -480 0 -480 129 0 130 0 3 298 c3 281 4 299 24 337 39 72 95 105 177 105 41 0 61 -6 82 -22 56 -44 59 -64 63 -405 l4 -313 128 0 128 0 4 293 c3 284 4 293 27 340 40 81 127 124 216 104 50 -10 72 -30 99 -87 20 -42 21 -65 24 -347 l4 -303 129 0 130 0 -3 358 -3 357 -33 67 c-59 120 -157 179 -307 186 -73 3 -101 0 -150 -17 -74 -26 -154 -80 -187 -127 l-26 -35 -21 35 c-33 52 -106 112 -158 130 -48 17 -140 20 -183 7z"></path>
        <path
            d="M5550 6090 c-82 -22 -182 -66 -219 -97 l-24 -20 53 -77 c29 -42 56 -79 60 -81 4 -3 32 9 61 25 103 56 233 75 304 46 41 -17 75 -68 75 -112 l0 -32 -167 -5 c-187 -5 -241 -17 -319 -70 -34 -22 -57 -49 -77 -87 -27 -51 -29 -61 -25 -145 5 -103 24 -149 85 -206 75 -70 153 -99 267 -99 84 0 160 30 219 88 l37 36 0 -57 0 -57 126 0 125 0 -3 358 c-4 414 -6 421 -93 508 -74 74 -137 96 -290 101 -97 2 -134 -1 -195 -17z m310 -581 c0 -110 -105 -184 -228 -160 -109 21 -135 137 -42 183 27 14 61 18 153 18 l117 0 0 -41z"></path>
    </g>
</svg>