<?xml version="1.0" encoding="utf-8"?>
<!-- Generator: Adobe Illustrator 24.3.0, SVG Export Plug-In . SVG Version: 6.00 Build 0)  -->
<svg version="1.1" id="Layer_1" xmlns="http://www.w3.org/2000/svg" xmlns:xlink="http://www.w3.org/1999/xlink" x="0px" y="0px"
	 viewBox="0 0 1080 1080" style="enable-background:new 0 0 1080 1080;" xml:space="preserve">
<style type="text/css">
	.st0{fill:#4861FE;}
</style>
<g>
	<path class="st0" d="M686.2,607c14.9-21.7,28.8-41.9,42.6-62.1c8.2-12,8.2-12-0.1-24.4c-11.9-17.6-23.8-35.2-35.6-52.9
		c-1.1-1.6-3.3-3.2-2.4-5.2c1-2.3,3.6-1.1,5.4-1.1c11.9-0.1,23.8,0.2,35.7-0.2c4.5-0.1,6.8,1.7,9,5.3c6.8,11.1,14,22.1,21.4,33.6
		c18.3-25.6,34.1-51.6,48-78.5c6.9-13.4,15.1-17.3,29.8-17c43.5,1.1,87.1,0.5,130.6,0.3c4.6,0,7.2,1.2,9.6,5.3
		c23.9,41.7,48,83.3,72.2,124.8c2.1,3.7,2.4,6.4,0.2,10.2c-24.4,41.7-48.5,83.5-72.6,125.4c-2,3.5-4.1,5-8.2,4.9
		c-48.6-0.2-97.2-0.2-145.8,0c-4.6,0-6.7-1.9-8.7-5.4c-17.9-31.1-35.9-62.2-53.9-93.3c-4.1-7.1-4.2-7.1-9-0.2
		c-6.1,8.7-12.1,17.5-18.1,26.3c-1.6,2.3-3.1,4.3-6.5,4.3C715.7,606.9,701.8,607,686.2,607z M898.6,618.7c13.2,0,26.3-0.2,39.5,0.1
		c4.4,0.1,6.8-1.4,8.9-5.2c13-22.8,26.2-45.6,39.5-68.2c2.1-3.6,2.5-6.4,0.2-10.3c-13.5-22.8-26.7-45.8-39.9-68.9
		c-2-3.5-4.2-4.9-8.3-4.9c-26.6,0.2-53.1,0.2-79.7,0c-4.1,0-6.4,1.4-8.3,4.9c-13.2,23-26.4,46-39.9,68.9c-2,3.4-2.4,5.9-0.2,9.6
		c13.6,23.1,27,46.3,40.2,69.5c2.1,3.7,4.6,4.6,8.5,4.5C872.3,618.6,885.4,618.7,898.6,618.7z"/>
	<path class="st0" d="M394.5,485.6c17.6-22.1,39.9-30.8,67.4-24.7c22.8,5,38.2,22.4,39.9,45.8c2.3,31.8,0.5,63.8,1,95.7
		c0,3-0.6,4.7-4.2,4.7c-10.9-0.1-21.8-0.2-32.7,0c-5.5,0.1-4.4-3.6-4.4-6.7c0-22.8,0-45.6,0-68.4c0-4.3-0.1-8.6-0.4-12.9
		c-1.1-14-7.8-22.8-18.5-24.6c-13.6-2.3-26.4,4.3-32,16.4c-2.8,5.9-3.2,12.2-3.2,18.5c0,23.3-0.2,46.6,0.2,69.9
		c0.1,6.5-2,8.2-8.1,7.8c-8.8-0.5-17.7-0.4-26.6,0c-5.3,0.3-6.9-1.4-6.8-6.7c0.3-22.3,0.2-44.6,0.1-66.9c0-6.3-0.2-12.7-1-18.9
		c-2.2-17.6-16.5-25.6-32.7-18.2c-10.4,4.8-17,13.1-17.5,24.7c-0.7,17.7-0.6,35.4-0.7,53.1c-0.1,8.4-0.5,16.7,0.1,25.1
		c0.5,6.6-2,8.1-8.1,7.8c-8.6-0.5-17.2-0.5-25.8,0c-5.7,0.3-7.2-1.4-7.2-7.1c0.3-40.3,0.1-80.5,0.1-120.8c0-18,0-18,18.1-18
		c4.6,0,9.2,0.5,13.7-0.1c7.1-0.9,10.5,1.3,9.2,8.9c-0.3,1.5-0.9,3.8,1.3,4.6c1.7,0.6,2.6-1.2,3.7-2.1
		c26.3-21.3,53.7-17.5,72.8,10.1C392.8,483.6,393.6,484.5,394.5,485.6z"/>
	<path class="st0" d="M52.3,607c5.5-12.8,10.6-24.9,15.8-36.9c20.9-48.5,42-96.9,62.7-145.5c2.2-5.2,4.9-7.3,10.6-7
		c9.1,0.5,18.2,0.3,27.3,0c4.4-0.1,6.7,1.2,8.5,5.4c25.5,59.4,51.2,118.8,77,178.2c2.1,4.8,1.2,6-4,5.9c-11.1-0.3-22.3-0.3-33.4,0
		c-4.4,0.2-6.2-1.7-7.7-5.4c-4.1-10.1-8.7-19.9-12.7-30c-1.6-4.1-3.7-5.8-8.3-5.7c-22.5,0.3-45.1,0.2-67.6,0c-4.2,0-6.3,1.1-7.9,5.1
		c-4.2,10.6-8.9,20.9-13.4,31.4c-1,2.3-1.7,4.6-5.1,4.6C80.5,606.9,66.9,607,52.3,607z M154.5,474.3c-7.7,17.7-14.8,34.1-21.9,50.4
		c-1.3,2.9-1.4,4.5,2.7,4.5c12.4-0.2,24.7-0.2,37.1,0c4.6,0.1,5.1-1.6,3.4-5.4C168.8,507.8,162,491.8,154.5,474.3z"/>
	<path class="st0" d="M626.4,590.5c-25.1,22.9-54.3,24.2-77.7,5.5c-20.6-16.5-25.7-63.2,12.9-75.7c7.7-2.5,15.6-4.4,23.8-4.5
		c10.1-0.2,20.3-0.1,30.4-0.2c8.6,0,9.5-1.4,6.9-9.8c-2.8-9-9.7-13.9-21-14.2c-14.1-0.4-27.1,3.7-38.9,11c-5.1,3.2-7.2,2.2-9.9-2.4
		c-3.4-5.6-7.3-11-11.2-16.2c-2.4-3.2-1.9-5,1.4-7.2c26.3-16.5,54.6-22.6,84.9-14.5c23.6,6.3,36,22.9,36.4,47.2
		c0.4,30.6,0.1,61.3,0.2,91.9c0,4.2-1,5.8-5.4,5.7c-8.6-0.3-17.2-0.5-25.8,0c-5.8,0.4-7.8-1.6-7-7.2
		C626.7,597.2,626.4,594.4,626.4,590.5z M605.8,544.6c-7.3,0.2-14.6-0.7-21.7,1.8c-6,2.1-9.9,6.2-10.1,12.7
		c-0.2,6.3,2.7,11.1,8.5,14c10.3,5.2,26.3,2.5,34.6-5.6c3.4-3.3,5.5-7.2,6.3-11.8c1.8-10.2,1-11.2-9.2-11.2
		C611.3,544.6,608.5,544.6,605.8,544.6z"/>
</g>
</svg>
