<?xml version="1.0" encoding="utf-8"?>
<!-- Generator: Adobe Illustrator 24.3.0, SVG Export Plug-In . SVG Version: 6.00 Build 0)  -->
<svg version="1.1" id="Layer_1" xmlns="http://www.w3.org/2000/svg" xmlns:xlink="http://www.w3.org/1999/xlink" x="0px" y="0px"
	 viewBox="0 0 9 9" style="enable-background:new 0 0 9 9;" xml:space="preserve">
<style type="text/css">
	.st0{fill:#4479D8;}
</style>
<path class="st0" d="M3.7,2.9c-0.1,0-0.2-0.1-0.3-0.1c-0.1,0-0.1,0-0.2,0.1c0,0,0,0.1,0,0.2c0.1,0.2,0.3,0.5,0.4,0.7
	c0.5,0.8,1,1.5,1.4,2.3c0.1,0.1,0.2,0.2,0.3,0.2c0.1,0,0.1-0.2,0.2-0.3c0,0,0-0.1,0-0.1C6,6.4,6.5,6.8,7,7.2
	C6.9,7.3,6.9,7.3,6.8,7.4C6.6,7.4,6.4,7.5,6.3,7.6c-0.4,0.1-0.7,0.1-1-0.1c-0.8-0.4-1.5-1-2-1.7c-0.6-1-1.1-2-1.1-3.1
	c0-0.5,0.1-0.9,0.5-1.2C2.8,1.2,3,1.1,3.2,0.9C3.4,1.6,3.5,2.2,3.7,2.9z"/>
<path class="st0" d="M3.3,0.9C3.4,0.9,3.4,0.9,3.3,0.9c0.5,0,0.5,0,0.6,0.5C4,1.7,4.1,2,4.2,2.4c0,0.2,0,0.2-0.1,0.3
	C4,2.8,4,2.8,3.9,2.9C3.7,2.2,3.5,1.6,3.3,0.9z"/>
<path class="st0" d="M5.6,5.8C5.7,5.7,5.8,5.6,6,5.6c0.1,0,0.2,0,0.2,0c0.4,0.3,0.7,0.6,1.1,0.9c0,0,0.1,0.1,0.1,0.2
	c0,0.1-0.1,0.2-0.1,0.4C6.6,6.7,6.1,6.2,5.6,5.8z"/>
</svg>
