<?xml version="1.0" encoding="utf-8"?>
<!-- Generator: Adobe Illustrator 24.3.0, SVG Export Plug-In . SVG Version: 6.00 Build 0)  -->
<svg version="1.1" id="Layer_1" xmlns="http://www.w3.org/2000/svg" xmlns:xlink="http://www.w3.org/1999/xlink" x="0px" y="0px"
	 viewBox="0 0 24 24" style="enable-background:new 0 0 24 24;" xml:space="preserve">
<style type="text/css">
	.st0{fill:none;}
	.st1{fill:#4479D8;}
</style>
<path class="st0" d="M0,0h24v24H0V0z"/>
<path class="st1" d="M13.1,9.6c0.4-0.4,0.7-0.8,1.1-1.1c0.6-0.4,1.3-0.6,2-0.7c0.9-0.1,1.9-0.1,2.8,0.2c1.4,0.4,2.3,1.3,2.8,2.6
	c0.5,1.2,0.6,2.4,0.6,3.6c0,2.3,0,4.7,0,7c0,0.5-0.3,0.8-0.8,0.8c-1,0-2,0-3,0c-0.5,0-0.8-0.3-0.8-0.8c0-2.2,0-4.4,0-6.6
	c0-0.6-0.1-1.2-0.3-1.7c-0.6-1.7-2.9-1.7-3.7-0.6c-0.5,0.7-0.8,1.5-0.8,2.4c0,2.2,0,4.3,0,6.5c0,0.6-0.2,0.9-0.9,0.9
	c-0.9,0-1.8,0-2.8,0c-0.6,0-0.8-0.3-0.8-0.8c0-4.2,0-8.3,0-12.5C8.6,8.2,8.9,8,9.5,8c0.9,0,1.9,0,2.8,0c0.5,0,0.8,0.3,0.8,0.8
	C13.1,9.1,13.1,9.3,13.1,9.6z"/>
<path class="st1" d="M6.6,15c0,2,0,4.1,0,6.1c0,0.7-0.2,0.9-0.9,0.9c-0.9,0-1.8,0-2.6,0c-0.6,0-0.9-0.3-0.9-0.9c0-4.1,0-8.2,0-12.3
	C2.2,8.2,2.5,8,3.1,8C4,8,4.9,8,5.8,8c0.6,0,0.9,0.3,0.9,0.9C6.6,10.9,6.6,13,6.6,15z"/>
<path class="st1" d="M4.4,6.8c-1.6,0-2.9-1.3-2.9-2.8c0-1.6,1.3-2.9,2.9-2.9c1.6,0,2.9,1.3,2.9,2.9C7.3,5.5,6,6.8,4.4,6.8z"/>
</svg>
