<svg id="Layer_1" data-name="Layer 1" xmlns="http://www.w3.org/2000/svg" viewBox="0 0 24 25"><path d="M17.78,20.9h.65a1.67,1.67,0,0,1-1,1.73,1.73,1.73,0,0,1-.6.11H7.32c-.74,0-1.48,0-2.22,0a1.59,1.59,0,0,1-1.4-.8,1.47,1.47,0,0,1-.23-.82V6.62A1.61,1.61,0,0,1,4.71,5.05a1.57,1.57,0,0,1,.37,0H6.91c0-.11,0-.21,0-.31a.41.41,0,0,1,.43-.46H9.39c.09,0,.11,0,.11-.11,0-.44.06-.89.13-1.32A1.31,1.31,0,0,1,12.24,3c0,.4.08.81.11,1.21,0,.07,0,.06.08.06h2.1a.41.41,0,0,1,.44.44c0,.11,0,.22,0,.33H16.8a1.6,1.6,0,0,1,1.26.59,1.55,1.55,0,0,1,.37,1v5.33h-.65v-.09c0-1.72,0-3.45,0-5.17a1,1,0,0,0-1-1h-2a.16.16,0,0,0-.14.07A2,2,0,0,1,13,6.64c-.27,0-.53,0-.79,0H8.87a2,2,0,0,1-1.34-.51c-.12-.12-.22-.28-.34-.41a.18.18,0,0,0-.1-.06h-2a1,1,0,0,0-1,1V21.08a1,1,0,0,0,1,1H16.77a1.05,1.05,0,0,0,.66-.22,1,1,0,0,0,.35-.71ZM10.93,5.61h2.32a.22.22,0,0,0,.24-.22.22.22,0,0,0-.23-.22H8.56a.23.23,0,0,0-.19.14.23.23,0,0,0,.24.3Zm0-2.12a.56.56,0,0,0,.56-.56.56.56,0,1,0-1.11,0A.55.55,0,0,0,10.92,3.49Z" style="fill:#4479d8"/><path d="M20.77,20.63l-1.58.67c-.15-.26-.31-.51-.47-.76l-.18-.3a.1.1,0,0,0-.1-.06h-.61s-.07,0-.09.06l-.6,1,0,.07-1.59-.63c.1-.41.19-.81.29-1.22a.12.12,0,0,0,0-.13c-.14-.13-.27-.26-.4-.4a.1.1,0,0,0-.12,0l-1.14.29a.09.09,0,0,1-.12-.06c-.2-.48-.4-1-.61-1.44a.39.39,0,0,0,0-.06l.49-.3.58-.36a.14.14,0,0,0,.05-.1q0-.3,0-.6s0-.07-.07-.09l-1-.59-.09-.06.36-.89c.09-.21.17-.41.25-.62,0-.06.05-.07.11-.06l1.12.28a.13.13,0,0,0,.14-.05l.4-.41a.09.09,0,0,0,0-.11c-.11-.4-.21-.81-.31-1.22L17,11.79c.17.27.34.53.5.8.06.08.11.18.17.26a.09.09,0,0,0,.08.05h.61a.12.12,0,0,0,.11-.07c.2-.32.39-.65.59-1,0-.06.06-.06.13,0l1.43.58c.06,0,.07,0,.05.11l-.27,1.11a.11.11,0,0,0,0,.12l.43.42a.11.11,0,0,0,.12,0l1.12-.29s.08,0,.11,0c.21.51.43,1,.65,1.53l-.65.39c-.14.09-.27.18-.42.26a.11.11,0,0,0,0,.1c0,.2,0,.41,0,.61s0,.08.07.11l1.05.64-.64,1.58L21.56,19,21,18.85s-.07,0-.1,0-.27.28-.41.41a.12.12,0,0,0,0,.15Zm-2.61-1.79a2.3,2.3,0,1,0-2.35-2.24A2.3,2.3,0,0,0,18.16,18.84Z" style="fill:#4479d8"/><path d="M8.2,8.63l.61-.53.24-.21a.18.18,0,0,1,.27,0,.2.2,0,0,1,0,.28l-1,.89a.18.18,0,0,0-.06.14v1a.33.33,0,0,1-.34.34H6a.33.33,0,0,1-.36-.36V8.29A.33.33,0,0,1,5.93,8H7.85a.33.33,0,0,1,.35.35ZM6,8.32V10.2H7.84V9.44L7.26,10a.2.2,0,0,1-.34,0c-.18-.28-.37-.56-.55-.85a.33.33,0,0,1,0-.14.18.18,0,0,1,.14-.16.17.17,0,0,1,.2.08l.47.72s0,0,0,0L7.81,9a.09.09,0,0,0,0-.06V8.32Z" style="fill:#4479d8"/><path d="M8.2,13l.21-.18L9,12.28a.23.23,0,0,1,.1-.07.17.17,0,0,1,.22.08.17.17,0,0,1,0,.23L8.72,13l-.46.4a.2.2,0,0,0-.06.12v1a.33.33,0,0,1-.35.36H6a.33.33,0,0,1-.37-.36V12.69A.34.34,0,0,1,6,12.31H7.83a.33.33,0,0,1,.37.37ZM6,12.68v1.88H7.84v-.75l-.07,0-.53.46a.19.19,0,0,1-.31,0c0-.09-.11-.17-.16-.25l-.4-.62a.19.19,0,1,1,.32-.2l0,.09c.14.2.27.4.4.61l.58-.5a.31.31,0,0,0,.13-.27,3.53,3.53,0,0,1,0-.46Z" style="fill:#4479d8"/><path d="M8.2,17.35l.27-.23.58-.51a.18.18,0,0,1,.23,0,.17.17,0,0,1,.08.2.27.27,0,0,1-.09.12l-1,.89a.13.13,0,0,0-.06.13v1a.32.32,0,0,1-.37.37H5.93A.32.32,0,0,1,5.59,19V17a.31.31,0,0,1,.33-.33H7.83a.33.33,0,0,1,.37.38Zm-.36.81-.12.11-.49.42a.17.17,0,0,1-.27,0q-.32-.47-.6-.93a.17.17,0,0,1,.06-.25.19.19,0,0,1,.27.08l.45.69h0l.65-.57a.09.09,0,0,0,0-.05V17H6v1.88H7.84Z" style="fill:#4479d8"/><path d="M12.89,10.57H10c-.16,0-.24-.07-.25-.19a.2.2,0,0,1,.22-.23h6a.21.21,0,0,1,.16.22.21.21,0,0,1-.19.19h-3Z" style="fill:#4479d8"/><path d="M13.34,19.28H10c-.13,0-.22-.06-.23-.17a.2.2,0,0,1,.22-.24c.17,0,.34,0,.51,0h2.63a.13.13,0,0,1,.09,0Z" style="fill:#4479d8"/><path d="M13,14.51l-.15.37s-.06,0-.09,0H10c-.14,0-.22-.07-.23-.18a.2.2,0,0,1,.18-.23H13Z" style="fill:#4479d8"/></svg>