<svg id="Layer_1" data-name="Layer 1" xmlns="http://www.w3.org/2000/svg" viewBox="0 0 24 25"><path d="M10.07,19.27A1.44,1.44,0,0,1,8.3,17.5a1.44,1.44,0,0,1-1.77-1.76,1.43,1.43,0,0,1-1.73-.92,1.41,1.41,0,0,1,.59-1.7A5.24,5.24,0,0,1,3.65,8.75,5,5,0,0,1,5.17,5.47,5,5,0,0,1,8.93,4a5.19,5.19,0,0,1,3.71,1.63c.08-.07.14-.15.22-.22a5.29,5.29,0,0,1,6.41-.61A5,5,0,0,1,21.5,8a5.21,5.21,0,0,1-.41,3.49A5.06,5.06,0,0,1,20,13,.12.12,0,0,0,20,13a1.45,1.45,0,0,1-1.59,2.2,1.42,1.42,0,0,1-.37,1.4,1.44,1.44,0,0,1-1.4.37,1.44,1.44,0,0,1-1.77,1.77,1.45,1.45,0,0,1-2.14,1.62,1.45,1.45,0,0,1-2.64-1.11Zm1-1c.12,0,.23,0,.35,0A1.43,1.43,0,0,1,12.86,20a.07.07,0,0,0,0,.09,1.07,1.07,0,0,0,.68.15,1,1,0,0,0,.89-.7,1,1,0,0,0-.25-1.11l-3.14-3.15C11,15.15,11,15,11,15a.2.2,0,0,1,.3,0l3.12,3.13a1,1,0,0,0,.9.31,1.06,1.06,0,0,0,.64-1.8L13.4,14l-.58-.57a.2.2,0,0,1,0-.27.18.18,0,0,1,.26,0l.05.05,3.13,3.12a1.06,1.06,0,0,0,1.62-.14,1.08,1.08,0,0,0-.12-1.38l-3.05-3.05a.74.74,0,0,1-.12-.13.17.17,0,0,1,0-.22.17.17,0,0,1,.2-.07.26.26,0,0,1,.11.07c1,1.05,2.1,2.09,3.14,3.14a1,1,0,0,0,.93.3,1.07,1.07,0,0,0,.59-1.8L14.4,7.93l-.06,0-.05.06L12.7,9.53a2.61,2.61,0,0,1-3.47.18.37.37,0,0,1,0-.62L12.33,6l.06,0-.21-.2A4.83,4.83,0,0,0,7.85,4.46a4.55,4.55,0,0,0-3,2A4.75,4.75,0,0,0,4,9.7a4.77,4.77,0,0,0,1.1,2.61c.17.21.38.39.57.59a.14.14,0,0,0,.14,0,1.42,1.42,0,0,1,1.73,1.55l0,.23A1.45,1.45,0,0,1,9.31,16.5a1.44,1.44,0,0,1,1.77,1.76ZM9.41,9.37l.06.06a2.24,2.24,0,0,0,3-.17l1.74-1.74c.12-.11.21-.11.32,0l2.1,2.1,3,3,.12.13a.12.12,0,0,0,.05-.05,4.79,4.79,0,0,0,.88-1.12,5,5,0,0,0,.55-3.23,4.57,4.57,0,0,0-1.36-2.62,4.9,4.9,0,0,0-6.46-.28,7.65,7.65,0,0,0-.65.62L9.47,9.33S9.43,9.36,9.41,9.37Zm-2.19,5a1.07,1.07,0,1,0-1.08,1.07A1.08,1.08,0,0,0,7.22,14.34Zm-.37,1.78a1.07,1.07,0,1,0,1-1.08A1.07,1.07,0,0,0,6.85,16.12Zm4.61,4.6a1.07,1.07,0,1,0-1.07-1.06A1.06,1.06,0,0,0,11.46,20.72ZM9.69,19a1.07,1.07,0,1,0-1.07-1.07A1.06,1.06,0,0,0,9.69,19Z" style="fill:#4479d8;stroke:#4479d8;stroke-miterlimit:10;stroke-width:0.5px"/></svg>