<?xml version="1.0" encoding="utf-8"?>
<!-- Generator: Adobe Illustrator 24.3.0, SVG Export Plug-In . SVG Version: 6.00 Build 0)  -->
<svg version="1.1" id="Layer_1" xmlns="http://www.w3.org/2000/svg" xmlns:xlink="http://www.w3.org/1999/xlink" x="0px" y="0px"
	 viewBox="0 0 9 9" style="enable-background:new 0 0 9 9;" xml:space="preserve">
<style type="text/css">
	.st0{fill:#4479D8;}
</style>
<path class="st0" d="M0.8,7c0.9-0.8,1.9-1.6,2.8-2.5c0.2,0.2,0.5,0.3,0.7,0.5C4.4,5,4.5,5.1,4.6,5C4.8,4.8,5,4.7,5.2,4.6
	c0,0,0.1,0,0.2,0c0.9,0.8,1.8,1.6,2.7,2.4c0,0,0,0,0,0.1C8,7.2,7.8,7.3,7.5,7.4c-0.1,0-0.2,0-0.4,0c-1.8,0-3.6,0-5.4,0
	C1.4,7.4,1.1,7.3,0.8,7z"/>
<path class="st0" d="M7.9,2.1C7.7,2.3,7.5,2.4,7.2,2.6C6.4,3.2,5.5,3.7,4.6,4.3c-0.1,0.1-0.2,0.1-0.4,0c-1-0.7-2.1-1.4-3.1-2.1
	c0,0-0.1-0.1-0.2-0.1C1.3,2,1.5,1.9,1.7,1.9c1.1,0,2.2,0,3.2,0c0.8,0,1.5,0,2.3,0C7.5,1.9,7.7,2,7.9,2.1z"/>
<path class="st0" d="M5.8,4.2c0.8-0.6,1.6-1.1,2.5-1.7c0,0.2,0.1,0.3,0.1,0.4c0,1.1,0,2.3,0,3.4c0,0,0,0,0,0.1
	C7.5,5.7,6.6,4.9,5.8,4.2z"/>
<path class="st0" d="M0.6,6.4c0-1.3,0-2.6,0-3.8c0,0,0.1,0,0.1,0c0.8,0.5,1.6,1.1,2.4,1.6C2.3,4.9,1.5,5.6,0.6,6.4z"/>
</svg>
